Coordinates
version=1
nRows=43
nColumns=12
inDegrees=yes

Units are S.I. units (second, meters, Newtons, ...)
Angles are in degrees

endheader
time	SC_y	SC_z	SC_x	AC_y	AC_z	AC_x	GH_y	GH_z	GH_yy	EL_x	PS_y
       0.0              -42.21          26.61          57.56          38.86          7.349          7.085           77.0          67.02         -162.6          93.88          146.5
   0.02675              -42.21          26.61          57.56          38.86          7.347          7.083           77.0          67.02         -162.6          93.87          146.5
   0.05351              -42.21           26.6          57.56          38.86          7.344          7.081          76.99          67.01         -162.5          93.86          146.5
   0.08026              -42.22           26.6          57.56          38.86          7.341          7.079          76.99          67.01         -162.5          93.85          146.5
     0.107              -42.22           26.6          57.56          38.86          7.337          7.077          76.98          67.01         -162.4          93.83          146.5
    0.1338              -42.22           26.6          57.56          38.86          7.334          7.075          76.98           67.0         -162.4          93.82          146.5
    0.1605              -42.22          26.59          57.56          38.86           7.33          7.072          76.97           67.0         -162.3           93.8          146.5
    0.1873              -42.23          26.59          57.56          38.86          7.326           7.07          76.97          66.99         -162.2          93.79          146.5
     0.214              -42.23          26.59          57.56          38.86          7.322          7.067          76.96          66.99         -162.2          93.77          146.5
    0.2408              -42.23          26.59          57.56          38.86          7.318          7.064          76.96          66.98         -162.1          93.75          146.5
    0.2675              -42.23          26.58          57.56          38.86          7.313          7.061          76.95          66.98         -162.0          93.73          146.5
    0.2943              -42.24          26.58          57.56          38.86          7.307          7.058          76.95          66.97         -162.0          93.71          146.5
     0.321              -42.24          26.57          57.56          38.87          7.302          7.054          76.94          66.96         -161.9          93.68          146.5
    0.3478              -42.25          26.57          57.56          38.87          7.296           7.05          76.93          66.96         -161.8          93.66          146.5
    0.3745              -42.25          26.56          57.56          38.87          7.289          7.046          76.92          66.95         -161.7          93.63          146.5
    0.4013              -42.26          26.56          57.57          38.87          7.282          7.042          76.91          66.94         -161.6           93.6          146.5
     0.428              -42.26          26.55          57.57          38.87          7.274          7.037           76.9          66.93         -161.4          93.56          146.5
    0.4548              -42.27          26.55          57.57          38.87          7.266          7.031          76.89          66.92         -161.3          93.53          146.5
    0.4815              -42.27          26.54          57.57          38.88          7.256          7.025          76.88          66.91         -161.2          93.49          146.5
    0.5083              -42.28          26.53          57.57          38.88          7.246          7.019          76.87           66.9         -161.0          93.45          146.5
    0.5351              -42.29          26.52          57.57          38.88          7.235          7.012          76.85          66.88         -160.8           93.4          146.5
    0.5618               -42.3          26.52          57.57          38.88          7.223          7.004          76.84          66.87         -160.6          93.35          146.5
    0.5886              -42.31          26.51          57.58          38.89          7.209          6.995          76.82          66.85         -160.4          93.29          146.5
    0.6153              -42.32          26.49          57.58          38.89          7.194          6.986           76.8          66.83         -160.2          93.22          146.5
    0.6421              -42.33          26.48          57.58          38.89          7.177          6.975          76.78          66.81         -159.9          93.15          146.5
    0.6688              -42.34          26.47          57.58           38.9          7.159          6.963          76.76          66.79         -159.6          93.07          146.5
    0.6956              -42.35          26.45          57.58           38.9          7.138           6.95          76.73          66.77         -159.3          92.98          146.5
    0.7223              -42.37          26.44          57.59          38.91          7.114          6.935           76.7          66.74         -159.0          92.88          146.6
    0.7491              -42.39          26.42          57.59          38.91          7.088          6.918          76.67          66.71         -158.5          92.77          146.6
    0.7758              -42.41          26.39           57.6          38.92          7.058          6.899          76.63          66.67         -158.1          92.64          146.6
    0.8026              -42.43          26.37           57.6          38.93          7.023          6.877          76.58          66.63         -157.6           92.5          146.6
    0.8293              -42.46          26.34          57.61          38.94          6.984          6.851          76.53          66.58         -156.9          92.33          146.6
    0.8561              -42.49          26.31          57.61          38.95          6.938          6.822          76.47          66.53         -156.2          92.13          146.6
    0.8828              -42.53          26.27          57.62          38.96          6.885          6.789          76.41          66.46         -155.4          91.91          146.6
    0.9096              -42.57          26.22          57.63          38.97          6.824          6.749          76.33          66.39         -154.5          91.64          146.6
    0.9363              -42.62          26.17          57.64          38.99          6.751          6.702          76.23           66.3         -153.3          91.33          146.6
    0.9631              -42.68          26.11          57.65          39.01          6.664          6.647          76.12          66.19         -152.0          90.96          146.6
    0.9898              -42.75          26.03          57.66          39.03           6.56          6.581          75.99          66.07         -150.4          90.52          146.6
     1.017              -42.84          25.94          57.68          39.06          6.434            6.5          75.83          65.92         -148.4          89.99          146.6
     1.043              -42.94          25.82           57.7          39.09           6.28          6.402          75.63          65.73         -146.0          89.33          146.7
      1.07              -43.07          25.68          57.73          39.14          6.091          6.281          75.39           65.5         -143.1          88.52          146.7
     1.097              -43.23          25.51          57.76          39.19          5.854           6.13          75.09          65.22         -139.4          87.51          146.7
     1.124              -43.44          25.29           57.8          39.25          5.556           5.94          74.71          64.86         -134.8          86.24          146.7
